<?xml version="1.0" encoding="UTF-8"?>
<svg width="75px" height="75px" viewBox="0 0 75 75" version="1.1" xmlns="http://www.w3.org/2000/svg" xmlns:xlink="http://www.w3.org/1999/xlink">
    <!-- Generator: Sketch 49 (51002) - http://www.bohemiancoding.com/sketch -->
    <title>python</title>
    <desc>Created with Sketch.</desc>
    <defs>
        <polygon id="path-1" points="0.00546116505 0.0731707317 55.5805522 0.0731707317 55.5805522 56.049878 0.00546116505 56.049878"></polygon>
    </defs>
    <g id="Page-1" stroke="none" stroke-width="1" fill="none" fill-rule="evenodd">
        <g id="闯关" transform="translate(-216.000000, -281.000000)">
            <g id="header" transform="translate(144.000000, 137.000000)">
                <g id="Group-5" transform="translate(0.000000, 93.000000)">
                    <g id="1" transform="translate(0.000000, 1.000000)">
                        <g id="python" transform="translate(72.000000, 50.000000)">
                            <g id="Group-3">
                                <mask id="mask-2" fill="white">
                                    <use xlink:href="#path-1"></use>
                                </mask>
                                <g id="Clip-2"></g>
                                <path d="M44.4583434,0.635213415 L47.2543689,1.25935976 L49.5223908,2.07109756 L51.3552488,3.00786585 L52.7535801,4.00682927 L53.8095874,5.0682622 L54.5864381,6.12978659 L55.0834951,7.16012195 L55.3942354,8.09661585 L55.5182949,8.90835366 L55.5805522,9.53286585 L55.5496056,9.93868902 L55.5496056,26.6097256 L55.3942354,28.5765549 L54.9902913,30.2935976 L54.3378641,31.7298476 L53.5300667,32.9160366 L52.59821,33.8839024 L51.5727852,34.6645427 L50.4855583,35.2576829 L49.3979672,35.6946037 L48.3729066,36.0068598 L47.4406857,36.2255488 L46.6328883,36.3502134 L45.9804612,36.4126829 L27.4330704,36.4126829 L25.289199,36.5689024 L23.456341,37.0058232 L21.9030036,37.6928963 L20.6290959,38.5356402 L19.6040352,39.5346037 L18.7649272,40.6272256 L18.1438107,41.7512195 L17.6777002,42.906311 L17.36696,43.9992073 L17.1493325,44.9981707 L17.0252731,45.8410061 L16.9630158,46.4965244 L16.9630158,56.049878 L10.0348908,56.049878 L9.38246359,55.9562195 L8.51240898,55.737622 L7.51838592,55.3628049 L6.43106796,54.8007622 L5.31253034,53.9893902 L4.19399272,52.8653963 L3.10676578,51.4291463 L2.1126517,49.5873476 L1.24259709,47.3082622 L0.590169903,44.5607927 L0.155370146,41.2828354 L0,37.4427439 L0.186316748,33.6342073 L0.683373786,30.3872561 L1.42927791,27.6711585 L2.42339199,25.4546341 L3.54156553,23.6750305 L4.7845267,22.3016159 L6.08938107,21.2712805 L7.39423544,20.5220122 L8.63692354,20.0225305 L9.75546117,19.7102744 L10.7495752,19.5541463 L11.4951153,19.5230488 L11.9921723,19.5230488 L12.1784891,19.5541463 L37.5302184,19.5541463 L37.5302184,16.9628049 L19.3864078,16.9628049 L19.3554612,8.37740854 L19.2932949,7.22231707 L19.448665,6.16088415 L19.7903519,5.19329268 L20.3182646,4.31908537 L21.0952063,3.50734756 L22.0583738,2.78917683 L23.2387136,2.16503049 L24.6058252,1.60307927 L26.1901092,1.13460366 L27.9923847,0.759878049 L29.9806129,0.447987805 L32.1863774,0.260396341 L34.5784587,0.135731707 L37.1881675,0.0731707317 L41.1340413,0.22929878 L44.4583434,0.635213415 Z M24.8852549,6.8164939 L24.1710255,7.84682927 L23.9224515,9.12695122 L24.1710255,10.4067073 L24.8852549,11.4682317 L25.9106796,12.1553049 L27.1845874,12.4360976 L28.4581311,12.1553049 L29.4835558,11.4682317 L30.1981493,10.4067073 L30.4467233,9.12695122 L30.1981493,7.84682927 L29.4835558,6.8164939 L28.4581311,6.12978659 L27.1845874,5.84890244 L25.9106796,6.12978659 L24.8852549,6.8164939 Z" id="Fill-1" fill="#0077FF" mask="url(#mask-2)"></path>
                            </g>
                            <path d="M65.5535498,19.1483232 L66.4232403,19.3355488 L67.4172633,19.7102744 L68.5049454,20.2723171 L69.623483,21.1151524 L70.7416566,22.2076829 L71.8292476,23.6750305 L72.8233617,25.5171037 L73.6934163,27.796189 L74.3457524,30.5433841 L74.7806432,33.7903354 L74.9360133,37.6303354 L74.7493325,41.4703354 L74.2522755,44.7169207 L73.5067354,47.4019207 L72.5126214,49.6184451 L71.3940837,51.3980488 L70.1513956,52.8029268 L68.8466323,53.8332622 L67.5417779,54.5825305 L66.2990898,55.0820122 L65.1805522,55.3628049 L64.1864381,55.5189329 L63.4408981,55.5814939 L62.943841,55.5503963 L37.4057949,55.5503963 L37.4057949,58.1102744 L55.5496056,58.1102744 L55.5805522,66.7267683 L55.6427184,67.8507622 L55.4873483,68.9122866 L55.1456614,69.8801524 L54.6172937,70.7854573 L53.840807,71.5657317 L52.8776396,72.315 L51.6972087,72.9395122 L50.3301881,73.4704573 L48.74554,73.9384756 L46.9436286,74.3442988 L44.9554005,74.6254573 L42.7496359,74.8437805 L40.3571905,74.968811 L37.7474818,74.9999085 L33.8019721,74.8752439 L30.4776699,74.4379573 L27.6816444,73.8137195 L25.4136226,73.0330793 L23.5804005,72.0966768 L22.1824333,71.06625 L21.1260619,70.0048171 L20.3495752,68.9432927 L19.8525182,67.9133232 L19.5417779,66.9765549 L19.4173544,66.196189 L19.3554612,65.5716768 L19.3864078,65.1658537 L19.3864078,48.4944512 L19.5417779,46.4965244 L19.9457221,44.8105793 L20.5981493,43.3746951 L21.4059466,42.1881402 L22.3378034,41.1891768 L23.3632282,40.44 L24.4504551,39.8154878 L25.537682,39.3784756 L26.5631068,39.0662195 L27.4949636,38.8789939 L28.3027609,38.7539634 L28.9551881,38.6917683 L29.3591323,38.6603963 L47.5028519,38.6603963 L49.6464502,38.5042683 L51.4796723,38.0672561 L53.0330097,37.4116463 L54.3069175,36.537439 L55.3319782,35.5384756 L56.1707221,34.4459451 L56.7922027,33.3219512 L57.2583131,32.1978659 L57.5690534,31.1053354 L57.7863167,30.106372 L57.9107403,29.2321646 L57.9729976,28.5765549 L57.9729976,19.0232012 L64.4659587,19.0232012 L64.9011226,19.0546646 L65.5535498,19.1483232 Z M45.4524575,63.6359451 L44.7378641,64.666372 L44.48929,65.9464939 L44.7378641,67.22625 L45.4524575,68.2566768 L46.4775182,68.9747561 L47.751426,69.2245427 L49.0253337,68.9747561 L50.0503944,68.2566768 L50.7649879,67.22625 L51.0135619,65.9464939 L50.7649879,64.666372 L50.0503944,63.6359451 L49.0253337,62.9181402 L47.751426,62.6684451 L46.4775182,62.9181402 L45.4524575,63.6359451 Z" id="Fill-4" fill="#0077FF"></path>
                        </g>
                    </g>
                </g>
            </g>
        </g>
    </g>
</svg>