<?xml version="1.0" encoding="UTF-8"?>
<svg width="93px" height="13px" viewBox="0 0 93 13" version="1.1" xmlns="http://www.w3.org/2000/svg" xmlns:xlink="http://www.w3.org/1999/xlink">
    <!-- Generator: Sketch 49 (51002) - http://www.bohemiancoding.com/sketch -->
    <title>Star</title>
    <desc>Created with Sketch.</desc>
    <defs></defs>
    <g id="Page-1" stroke="none" stroke-width="1" fill="none" fill-rule="evenodd">
        <g id="闯关" transform="translate(-471.000000, -770.000000)">
            <g id="新手场" transform="translate(144.000000, 487.000000)">
                <g id="Group-1" transform="translate(0.000000, 123.000000)">
                    <g id="1" transform="translate(232.500000, 0.000000)">
                        <g id="Group-4" transform="translate(29.000000, 158.000000)">
                            <g id="Star" transform="translate(66.000000, 2.000000)">
                                <polygon id="Star-1" fill="#F8A641" points="7.33437466 10.6553381 3.0233374 12.8504585 3.84667225 8.20111893 0.358969847 4.90843837 5.17885603 4.23010887 7.33437466 0 9.48989329 4.23010887 14.3097795 4.90843837 10.8220771 8.20111893 11.6454119 12.8504585"></polygon>
                                <polygon id="Star-1" fill="#E2E4ED" points="26.8927071 10.6553381 22.5816698 12.8504585 23.4050047 8.20111893 19.9173023 4.90843837 24.7371884 4.23010887 26.8927071 0 29.0482257 4.23010887 33.8681119 4.90843837 30.3804095 8.20111893 31.2037443 12.8504585"></polygon>
                                <polygon id="Star-1" fill="#E2E4ED" points="46.4510395 10.6553381 42.1400022 12.8504585 42.9633371 8.20111893 39.4756347 4.90843837 44.2955209 4.23010887 46.4510395 0 48.6065581 4.23010887 53.4264443 4.90843837 49.9387419 8.20111893 50.7620768 12.8504585"></polygon>
                                <polygon id="Star-1" fill="#E2E4ED" points="66.0093719 10.6553381 61.6983347 12.8504585 62.5216695 8.20111893 59.0339671 4.90843837 63.8538533 4.23010887 66.0093719 0 68.1648906 4.23010887 72.9847767 4.90843837 69.4970743 8.20111893 70.3204092 12.8504585"></polygon>
                                <polygon id="Star-1" fill="#E2E4ED" points="85.5677043 10.6553381 81.2566671 12.8504585 82.0800019 8.20111893 78.5922995 4.90843837 83.4121857 4.23010887 85.5677043 0 87.723223 4.23010887 92.5431092 4.90843837 89.0554067 8.20111893 89.8787416 12.8504585"></polygon>
                            </g>
                        </g>
                    </g>
                </g>
            </g>
        </g>
    </g>
</svg>